<svg xmlns="http://www.w3.org/2000/svg" viewBox="0 0 512 512">
  <path fill="#E8482B" d="M120 96 L176 96 L176 416 L120 416 Z"/><path fill="#A82812" d="M176 96 L392 148 L392 196 L176 152 Z"/><path fill="#A82812" d="M176 416 L392 364 L392 316 L176 360 Z"/><g transform="translate(330 256) scale(0.8) translate(-256 -256)"><path fill="#2C5FD3" d="M204 176 L240 176 L240 336 L204 336 Z M240 176 L284 176 L308 200 L308 232 L284 256 L240 256 Z M240 256 L284 256 L308 280 L308 312 L284 336 L240 336 Z"/></g>
</svg>
